<?xml version="1.0" encoding="UTF-8" standalone="no"?>
<!DOCTYPE svg PUBLIC "-//W3C//DTD SVG 1.1//EN" "http://www.w3.org/Graphics/SVG/1.1/DTD/svg11.dtd">
<svg width="100%" height="100%" viewBox="0 0 601 600" version="1.1" xmlns="http://www.w3.org/2000/svg" xmlns:xlink="http://www.w3.org/1999/xlink" xml:space="preserve" xmlns:serif="http://www.serif.com/" style="fill-rule:evenodd;clip-rule:evenodd;stroke-linecap:round;stroke-linejoin:round;stroke-miterlimit:1.5;">
    <g id="Capa1">
        <g transform="matrix(1.01394,0,0,1.03375,-0.111498,-8.60746)">
            <path d="M287.029,28.979C288.865,26.45 291.835,24.948 295,24.948C298.165,24.948 301.135,26.45 302.971,28.979C307.356,35.019 312.561,42.189 315.864,46.737L323.284,47.432C327.405,43.578 333.902,37.502 339.374,32.384C341.664,30.243 344.868,29.32 347.975,29.907C351.082,30.495 353.707,32.52 355.021,35.342C358.162,42.088 361.891,50.097 364.257,55.178L371.409,57.238C376.612,53.958 385.072,48.625 391.725,44.431C394.015,42.988 396.876,42.72 399.403,43.712C401.93,44.704 403.811,46.834 404.453,49.429C406.318,56.968 408.689,66.554 410.147,72.449L416.772,75.799C422.081,73.714 430.462,70.423 437.499,67.66C440.416,66.515 443.718,66.824 446.362,68.49C449.005,70.156 450.663,72.974 450.813,76.052C451.174,83.479 451.603,92.324 451.875,97.926L457.734,102.445C463.316,101.39 472.109,99.728 479.525,98.326C482.641,97.737 485.855,98.663 488.151,100.811C490.448,102.959 491.544,106.063 491.092,109.144C490.017,116.476 488.743,125.17 487.934,130.689L492.815,136.214C498.508,136.214 507.483,136.214 515.042,136.214C518.207,136.214 521.177,137.716 523.013,140.244C524.849,142.773 525.324,146.017 524.289,148.95C521.817,155.957 518.881,164.276 517.019,169.553L520.746,175.884C526.336,176.941 535.149,178.607 542.572,180.01C545.68,180.598 548.306,182.623 549.621,185.447C550.935,188.271 550.776,191.544 549.194,194.233C545.414,200.654 540.927,208.277 538.08,213.113L540.518,220.022C545.804,222.097 554.135,225.369 561.153,228.125C564.092,229.279 566.279,231.755 567.026,234.772C567.772,237.789 566.984,240.973 564.912,243.32C559.961,248.923 554.084,255.576 550.356,259.796L551.416,267.032C556.206,270.051 563.756,274.81 570.115,278.819C572.778,280.498 574.448,283.335 574.599,286.436C574.75,289.537 573.362,292.518 570.874,294.437C564.931,299.021 557.877,304.462 553.402,307.914L553.047,315.216C557.168,319.07 563.663,325.144 569.134,330.261C571.425,332.403 572.517,335.5 572.067,338.573C571.616,341.646 569.679,344.315 566.865,345.737C560.146,349.135 552.169,353.169 547.109,355.727L545.352,362.832C548.654,367.381 553.86,374.551 558.245,380.591C560.081,383.12 560.556,386.363 559.521,389.297C558.486,392.231 556.068,394.492 553.031,395.367C545.777,397.456 537.167,399.936 531.704,401.509L528.607,408.159C530.973,413.239 534.701,421.245 537.841,427.99C539.156,430.814 538.997,434.087 537.414,436.776C535.832,439.464 533.021,441.236 529.871,441.531C522.345,442.236 513.411,443.073 507.744,443.603L503.42,449.559C504.763,454.986 506.878,463.54 508.661,470.746C509.407,473.762 508.619,476.947 506.546,479.293C504.474,481.639 501.372,482.857 498.221,482.562C490.696,481.857 481.762,481.021 476.095,480.49L470.7,485.535C470.971,491.113 471.398,499.905 471.758,507.312C471.908,510.412 470.521,513.393 468.033,515.312C465.545,517.231 462.264,517.851 459.227,516.977C451.974,514.888 443.363,512.408 437.9,510.835L431.63,514.787C430.82,520.315 429.542,529.027 428.467,536.367C428.016,539.44 426.078,542.109 423.265,543.531C420.452,544.954 417.111,544.954 414.298,543.531C407.578,540.134 399.602,536.1 394.541,533.541L387.621,536.259C385.759,541.536 382.824,549.854 380.351,556.861C379.316,559.795 376.898,562.056 373.861,562.931C370.825,563.805 367.544,563.185 365.056,561.266C359.114,556.682 352.059,551.241 347.584,547.789L340.265,549.173C337.419,554.009 332.931,561.632 329.152,568.053C327.569,570.742 324.758,572.514 321.608,572.809C318.457,573.104 315.355,571.886 313.283,569.54C308.332,563.936 302.455,557.283 298.727,553.063L291.273,553.063C287.545,557.283 281.668,563.936 276.717,569.54C274.645,571.886 271.543,573.104 268.392,572.809C265.242,572.514 262.431,570.742 260.848,568.053C257.069,561.632 252.581,554.009 249.735,549.173L242.416,547.789C237.941,551.241 230.886,556.682 224.944,561.266C222.456,563.185 219.175,563.805 216.139,562.931C213.102,562.056 210.684,559.795 209.649,556.861C207.176,549.854 204.241,541.536 202.379,536.259L195.459,533.541C190.398,536.1 182.422,540.134 175.702,543.531C172.889,544.954 169.548,544.954 166.735,543.531C163.922,542.109 161.984,539.44 161.533,536.367C160.458,529.027 159.18,520.315 158.37,514.787L152.1,510.835C146.637,512.408 138.026,514.888 130.773,516.977C127.736,517.851 124.455,517.231 121.967,515.312C119.479,513.393 118.092,510.412 118.242,507.312C118.602,499.905 119.029,491.113 119.3,485.535L113.905,480.49C108.238,481.021 99.304,481.857 91.779,482.562C88.628,482.857 85.526,481.639 83.454,479.293C81.381,476.947 80.593,473.762 81.339,470.746C83.122,463.54 85.237,454.986 86.58,449.559L82.256,443.603C76.589,443.073 67.655,442.236 60.129,441.531C56.979,441.236 54.168,439.464 52.586,436.776C51.003,434.087 50.844,430.814 52.159,427.99C55.299,421.245 59.027,413.239 61.393,408.159L58.296,401.509C52.833,399.936 44.223,397.456 36.969,395.367C33.932,394.492 31.514,392.231 30.479,389.297C29.444,386.363 29.919,383.12 31.755,380.591C36.14,374.551 41.346,367.381 44.648,362.832L42.891,355.727C37.831,353.169 29.854,349.135 23.135,345.737C20.321,344.315 18.384,341.646 17.933,338.573C17.483,335.5 18.575,332.403 20.866,330.261C26.337,325.144 32.832,319.07 36.953,315.216L36.598,307.914C32.123,304.462 25.069,299.021 19.126,294.437C16.638,292.518 15.25,289.537 15.401,286.436C15.552,283.335 17.222,280.498 19.885,278.819C26.244,274.81 33.794,270.051 38.584,267.032L39.644,259.796C35.916,255.576 30.039,248.923 25.088,243.32C23.016,240.973 22.228,237.789 22.974,234.772C23.721,231.755 25.908,229.279 28.847,228.125C35.865,225.369 44.196,222.097 49.482,220.022L51.92,213.113C49.073,208.277 44.586,200.654 40.806,194.233C39.224,191.544 39.065,188.271 40.379,185.447C41.694,182.623 44.32,180.598 47.428,180.01C54.851,178.607 63.664,176.941 69.254,175.884L72.981,169.553C71.119,164.276 68.183,155.957 65.711,148.95C64.676,146.017 65.151,142.773 66.987,140.244C68.823,137.716 71.793,136.214 74.958,136.214C82.517,136.214 91.492,136.214 97.185,136.214L102.066,130.689C101.256,125.161 99.979,116.449 98.903,109.109C98.452,106.037 99.545,102.94 101.836,100.798C104.126,98.655 107.332,97.732 110.44,98.32C117.863,99.723 126.675,101.389 132.266,102.445L138.125,97.926C138.396,92.348 138.823,83.556 139.182,76.149C139.333,73.049 141.003,70.211 143.666,68.532C146.329,66.854 149.654,66.542 152.593,67.696C159.611,70.452 167.942,73.724 173.228,75.799L179.853,72.449C181.195,67.022 183.311,58.468 185.093,51.262C185.84,48.245 188.027,45.769 190.966,44.615C193.904,43.461 197.23,43.773 199.892,45.451C206.252,49.46 213.802,54.219 218.591,57.238L225.743,55.178C228.108,50.098 231.836,42.092 234.977,35.347C236.292,32.523 238.918,30.497 242.026,29.91C245.133,29.322 248.339,30.245 250.63,32.388C256.101,37.505 262.596,43.579 266.716,47.432L274.136,46.737C277.439,42.189 282.644,35.019 287.029,28.979Z"/>
            <clipPath id="_clip1">
                <path d="M287.029,28.979C288.865,26.45 291.835,24.948 295,24.948C298.165,24.948 301.135,26.45 302.971,28.979C307.356,35.019 312.561,42.189 315.864,46.737L323.284,47.432C327.405,43.578 333.902,37.502 339.374,32.384C341.664,30.243 344.868,29.32 347.975,29.907C351.082,30.495 353.707,32.52 355.021,35.342C358.162,42.088 361.891,50.097 364.257,55.178L371.409,57.238C376.612,53.958 385.072,48.625 391.725,44.431C394.015,42.988 396.876,42.72 399.403,43.712C401.93,44.704 403.811,46.834 404.453,49.429C406.318,56.968 408.689,66.554 410.147,72.449L416.772,75.799C422.081,73.714 430.462,70.423 437.499,67.66C440.416,66.515 443.718,66.824 446.362,68.49C449.005,70.156 450.663,72.974 450.813,76.052C451.174,83.479 451.603,92.324 451.875,97.926L457.734,102.445C463.316,101.39 472.109,99.728 479.525,98.326C482.641,97.737 485.855,98.663 488.151,100.811C490.448,102.959 491.544,106.063 491.092,109.144C490.017,116.476 488.743,125.17 487.934,130.689L492.815,136.214C498.508,136.214 507.483,136.214 515.042,136.214C518.207,136.214 521.177,137.716 523.013,140.244C524.849,142.773 525.324,146.017 524.289,148.95C521.817,155.957 518.881,164.276 517.019,169.553L520.746,175.884C526.336,176.941 535.149,178.607 542.572,180.01C545.68,180.598 548.306,182.623 549.621,185.447C550.935,188.271 550.776,191.544 549.194,194.233C545.414,200.654 540.927,208.277 538.08,213.113L540.518,220.022C545.804,222.097 554.135,225.369 561.153,228.125C564.092,229.279 566.279,231.755 567.026,234.772C567.772,237.789 566.984,240.973 564.912,243.32C559.961,248.923 554.084,255.576 550.356,259.796L551.416,267.032C556.206,270.051 563.756,274.81 570.115,278.819C572.778,280.498 574.448,283.335 574.599,286.436C574.75,289.537 573.362,292.518 570.874,294.437C564.931,299.021 557.877,304.462 553.402,307.914L553.047,315.216C557.168,319.07 563.663,325.144 569.134,330.261C571.425,332.403 572.517,335.5 572.067,338.573C571.616,341.646 569.679,344.315 566.865,345.737C560.146,349.135 552.169,353.169 547.109,355.727L545.352,362.832C548.654,367.381 553.86,374.551 558.245,380.591C560.081,383.12 560.556,386.363 559.521,389.297C558.486,392.231 556.068,394.492 553.031,395.367C545.777,397.456 537.167,399.936 531.704,401.509L528.607,408.159C530.973,413.239 534.701,421.245 537.841,427.99C539.156,430.814 538.997,434.087 537.414,436.776C535.832,439.464 533.021,441.236 529.871,441.531C522.345,442.236 513.411,443.073 507.744,443.603L503.42,449.559C504.763,454.986 506.878,463.54 508.661,470.746C509.407,473.762 508.619,476.947 506.546,479.293C504.474,481.639 501.372,482.857 498.221,482.562C490.696,481.857 481.762,481.021 476.095,480.49L470.7,485.535C470.971,491.113 471.398,499.905 471.758,507.312C471.908,510.412 470.521,513.393 468.033,515.312C465.545,517.231 462.264,517.851 459.227,516.977C451.974,514.888 443.363,512.408 437.9,510.835L431.63,514.787C430.82,520.315 429.542,529.027 428.467,536.367C428.016,539.44 426.078,542.109 423.265,543.531C420.452,544.954 417.111,544.954 414.298,543.531C407.578,540.134 399.602,536.1 394.541,533.541L387.621,536.259C385.759,541.536 382.824,549.854 380.351,556.861C379.316,559.795 376.898,562.056 373.861,562.931C370.825,563.805 367.544,563.185 365.056,561.266C359.114,556.682 352.059,551.241 347.584,547.789L340.265,549.173C337.419,554.009 332.931,561.632 329.152,568.053C327.569,570.742 324.758,572.514 321.608,572.809C318.457,573.104 315.355,571.886 313.283,569.54C308.332,563.936 302.455,557.283 298.727,553.063L291.273,553.063C287.545,557.283 281.668,563.936 276.717,569.54C274.645,571.886 271.543,573.104 268.392,572.809C265.242,572.514 262.431,570.742 260.848,568.053C257.069,561.632 252.581,554.009 249.735,549.173L242.416,547.789C237.941,551.241 230.886,556.682 224.944,561.266C222.456,563.185 219.175,563.805 216.139,562.931C213.102,562.056 210.684,559.795 209.649,556.861C207.176,549.854 204.241,541.536 202.379,536.259L195.459,533.541C190.398,536.1 182.422,540.134 175.702,543.531C172.889,544.954 169.548,544.954 166.735,543.531C163.922,542.109 161.984,539.44 161.533,536.367C160.458,529.027 159.18,520.315 158.37,514.787L152.1,510.835C146.637,512.408 138.026,514.888 130.773,516.977C127.736,517.851 124.455,517.231 121.967,515.312C119.479,513.393 118.092,510.412 118.242,507.312C118.602,499.905 119.029,491.113 119.3,485.535L113.905,480.49C108.238,481.021 99.304,481.857 91.779,482.562C88.628,482.857 85.526,481.639 83.454,479.293C81.381,476.947 80.593,473.762 81.339,470.746C83.122,463.54 85.237,454.986 86.58,449.559L82.256,443.603C76.589,443.073 67.655,442.236 60.129,441.531C56.979,441.236 54.168,439.464 52.586,436.776C51.003,434.087 50.844,430.814 52.159,427.99C55.299,421.245 59.027,413.239 61.393,408.159L58.296,401.509C52.833,399.936 44.223,397.456 36.969,395.367C33.932,394.492 31.514,392.231 30.479,389.297C29.444,386.363 29.919,383.12 31.755,380.591C36.14,374.551 41.346,367.381 44.648,362.832L42.891,355.727C37.831,353.169 29.854,349.135 23.135,345.737C20.321,344.315 18.384,341.646 17.933,338.573C17.483,335.5 18.575,332.403 20.866,330.261C26.337,325.144 32.832,319.07 36.953,315.216L36.598,307.914C32.123,304.462 25.069,299.021 19.126,294.437C16.638,292.518 15.25,289.537 15.401,286.436C15.552,283.335 17.222,280.498 19.885,278.819C26.244,274.81 33.794,270.051 38.584,267.032L39.644,259.796C35.916,255.576 30.039,248.923 25.088,243.32C23.016,240.973 22.228,237.789 22.974,234.772C23.721,231.755 25.908,229.279 28.847,228.125C35.865,225.369 44.196,222.097 49.482,220.022L51.92,213.113C49.073,208.277 44.586,200.654 40.806,194.233C39.224,191.544 39.065,188.271 40.379,185.447C41.694,182.623 44.32,180.598 47.428,180.01C54.851,178.607 63.664,176.941 69.254,175.884L72.981,169.553C71.119,164.276 68.183,155.957 65.711,148.95C64.676,146.017 65.151,142.773 66.987,140.244C68.823,137.716 71.793,136.214 74.958,136.214C82.517,136.214 91.492,136.214 97.185,136.214L102.066,130.689C101.256,125.161 99.979,116.449 98.903,109.109C98.452,106.037 99.545,102.94 101.836,100.798C104.126,98.655 107.332,97.732 110.44,98.32C117.863,99.723 126.675,101.389 132.266,102.445L138.125,97.926C138.396,92.348 138.823,83.556 139.182,76.149C139.333,73.049 141.003,70.211 143.666,68.532C146.329,66.854 149.654,66.542 152.593,67.696C159.611,70.452 167.942,73.724 173.228,75.799L179.853,72.449C181.195,67.022 183.311,58.468 185.093,51.262C185.84,48.245 188.027,45.769 190.966,44.615C193.904,43.461 197.23,43.773 199.892,45.451C206.252,49.46 213.802,54.219 218.591,57.238L225.743,55.178C228.108,50.098 231.836,42.092 234.977,35.347C236.292,32.523 238.918,30.497 242.026,29.91C245.133,29.322 248.339,30.245 250.63,32.388C256.101,37.505 262.596,43.579 266.716,47.432L274.136,46.737C277.439,42.189 282.644,35.019 287.029,28.979Z"/>
            </clipPath>
            <g clip-path="url(#_clip1)">
                <g transform="matrix(0.986254,0,0,0.967354,18.4023,34.9287)">
                    <circle cx="281.5" cy="272.5" r="217.5" style="fill:white;"/>
                    <clipPath id="_clip2">
                        <circle cx="281.5" cy="272.5" r="217.5"/>
                    </clipPath>
                    <g clip-path="url(#_clip2)">
                        <g transform="matrix(-0.922278,-0.692438,0.445714,-0.59366,628.11,619.448)">
                            <path d="M419,87L540,342C453.89,434.738 374.189,433.124 298,342L419,87Z" style="fill:rgb(175,175,175);"/>
                        </g>
                    </g>
                </g>
                <g transform="matrix(0.810663,-0.227866,0.20751,0.710219,-27.2857,180.535)">
                    <path d="M330,281.075L330,263.925L497.116,263.925L497.116,248L519,272.5L497.116,297L497.116,281.075L330,281.075Z"/>
                </g>
            </g>
        </g>
        <g>
            <g transform="matrix(0.766178,5.55112e-17,-5.55112e-17,0.766178,83.2189,160.023)">
                <path d="M322,167.341C322,161.416 319.646,155.733 315.456,151.544C311.267,147.354 305.584,145 299.659,145L266.198,145C260.311,145 254.665,147.339 250.502,151.502C246.339,155.665 244,161.311 244,167.198L244,200.802C244,206.689 246.339,212.335 250.502,216.498C254.665,220.661 260.311,223 266.198,223L299.802,223C305.689,223 311.335,220.661 315.498,216.498C319.661,212.335 322,206.689 322,200.802L322,167.341Z"/>
            </g>
            <g transform="matrix(1.12963,0,0,1.12963,-42.7953,-28.287)">
                <circle cx="303.5" cy="291.5" r="13.5" style="fill:white;stroke:white;stroke-width:0.89px;"/>
            </g>
        </g>
        <g transform="matrix(0.795402,0.795402,-0.778258,0.778258,295.667,-398.936)">
            <g transform="matrix(0.766178,5.55112e-17,-5.55112e-17,0.766178,83.2189,160.023)">
                <path d="M322,145L282.463,145C272.262,145 262.479,149.142 255.266,156.514C248.052,163.886 244,173.885 244,184.31C244,203.706 244,223 244,223L302.266,223C307.5,223 312.519,220.875 316.22,217.093C319.921,213.31 322,208.18 322,202.831C322,179.72 322,145 322,145Z"/>
            </g>
            <g transform="matrix(1.12963,0,0,1.12963,-42.7953,-28.287)">
                <circle cx="303.5" cy="291.5" r="13.5" style="fill:white;stroke:white;stroke-width:0.8px;"/>
            </g>
        </g>
        <g transform="matrix(0.532359,0.990921,-0.969563,0.520884,218.961,-222.14)">
            <g transform="matrix(0.766178,5.55112e-17,-5.55112e-17,0.766178,83.2189,160.023)">
                <path d="M322,165.299C322,154.088 313.108,145 302.139,145C279.029,145 244,145 244,145L244,183.523C244,193.993 248.07,204.034 255.313,211.437C262.557,218.841 272.382,223 282.626,223C302.25,223 322,223 322,223L322,165.299Z"/>
            </g>
            <g transform="matrix(1.12963,0,0,1.12963,-42.7953,-28.287)">
                <circle cx="303.5" cy="291.5" r="13.5" style="fill:white;stroke:white;stroke-width:0.8px;"/>
            </g>
        </g>
        <g transform="matrix(1.11468,-0.15106,0.147804,1.09065,-211.351,198)">
            <g transform="matrix(0.766178,5.55112e-17,-5.55112e-17,0.766178,83.2189,160.023)">
                <path d="M322,165.299C322,154.088 313.108,145 302.139,145C279.029,145 244,145 244,145L244,177.737C244,202.735 263.828,223 288.287,223L322,223L322,165.299Z"/>
            </g>
            <g transform="matrix(1.12963,0,0,1.12963,-42.7953,-28.287)">
                <circle cx="303.5" cy="291.5" r="13.5" style="fill:white;stroke:white;stroke-width:0.8px;"/>
            </g>
        </g>
        <g transform="matrix(0.192803,-1.10822,1.08434,0.188648,52.4089,756.694)">
            <g transform="matrix(0.766178,5.55112e-17,-5.55112e-17,0.766178,83.2189,160.023)">
                <path d="M322,165.299C322,154.088 313.108,145 302.139,145C290.362,145 275.489,145 263.734,145C258.5,145 253.481,147.125 249.78,150.907C246.079,154.69 244,159.82 244,165.169C244,176.751 244,191.249 244,202.831C244,208.18 246.079,213.31 249.78,217.093C253.481,220.875 258.5,223 263.734,223C275.531,223 290.469,223 302.266,223C307.5,223 312.519,220.875 316.22,217.093C319.921,213.31 322,208.18 322,202.831C322,191.292 322,176.859 322,165.299Z"/>
            </g>
            <g transform="matrix(1.12963,0,0,1.12963,-42.7953,-28.287)">
                <circle cx="303.5" cy="291.5" r="13.5" style="fill:white;stroke:white;stroke-width:0.8px;"/>
            </g>
        </g>
        <g transform="matrix(-0.998168,-0.518643,0.507465,-0.976653,657.922,681.955)">
            <g transform="matrix(0.766178,5.55112e-17,-5.55112e-17,0.766178,83.2189,160.023)">
                <path d="M322,165.299C322,154.088 313.108,145 302.139,145C279.029,145 244,145 244,145L244,186.531C244,196.203 247.759,205.479 254.451,212.319C261.143,219.158 270.219,223 279.683,223C300.223,223 322,223 322,223L322,165.299Z"/>
            </g>
            <g transform="matrix(1.12963,0,0,1.12963,-42.7953,-28.287)">
                <circle cx="303.5" cy="291.5" r="13.5" style="fill:white;stroke:white;stroke-width:0.8px;"/>
            </g>
        </g>
        <g>
            <g transform="matrix(-1.20499,0.4033,-0.394607,-1.17901,716.862,339.106)">
                <circle cx="303.5" cy="291.5" r="13.5"/>
            </g>
            <g transform="matrix(-0.713559,1.05142,-1.02875,-0.698179,655.596,76.7024)">
                <circle cx="303.5" cy="291.5" r="13.5"/>
            </g>
            <g transform="matrix(-0.995531,0.789658,-0.772638,-0.974073,705.371,191.985)">
                <circle cx="303.5" cy="291.5" r="13.5"/>
            </g>
            <g transform="matrix(-1.22056,-0.353375,0.345758,-1.19425,621.801,569.329)">
                <circle cx="303.5" cy="291.5" r="13.5"/>
            </g>
            <g transform="matrix(-0.718608,-1.04797,1.02538,-0.703119,379.567,715.063)">
                <circle cx="303.5" cy="291.5" r="13.5"/>
            </g>
            <g transform="matrix(-1.00339,-0.779641,0.762837,-0.981767,498.177,668.728)">
                <circle cx="303.5" cy="291.5" r="13.5"/>
            </g>
            <g transform="matrix(0.000196972,-1.27068,1.2433,0.000192726,131.566,679.751)">
                <circle cx="303.5" cy="291.5" r="13.5"/>
            </g>
            <g transform="matrix(1.25918,-0.170642,0.166964,1.23204,25.3252,105.445)">
                <circle cx="303.5" cy="291.5" r="13.5"/>
            </g>
            <g transform="matrix(1.12129,-0.597782,0.584898,1.09712,-26.7357,217.483)">
                <circle cx="303.5" cy="291.5" r="13.5"/>
            </g>
            <g transform="matrix(1.27025,0.0331193,-0.0324055,1.24287,-268.922,-77.5648)">
                <circle cx="303.5" cy="291.5" r="13.5"/>
            </g>
            <g transform="matrix(0.785642,0.998702,-0.977177,0.768709,195.318,-109.161)">
                <circle cx="303.5" cy="291.5" r="13.5"/>
            </g>
            <g transform="matrix(0.38839,1.20987,-1.1838,0.380019,344.024,-118.85)">
                <circle cx="303.5" cy="291.5" r="13.5"/>
            </g>
            <g transform="matrix(1.18556,0.457252,-0.447396,1.16001,0.707377,3.91671)">
                <circle cx="303.5" cy="291.5" r="13.5"/>
            </g>
            <g transform="matrix(1.20081,-0.41557,0.406613,1.17493,-117.849,264.484)">
                <circle cx="303.5" cy="291.5" r="13.5"/>
            </g>
            <g transform="matrix(1.27069,2.77556e-17,5.55112e-17,1.2433,-86.6529,131.579)">
                <circle cx="303.5" cy="291.5" r="13.5"/>
            </g>
        </g>
    </g>
</svg>
